# xmcd
#
# Track frame offsets: 
#        150
#        25417
#        43660
#        68012
#        85450
#        110825
#        134760
#        166455
#        181660
#        200447
#        217112
#        241292
#        262287
#
# Disc length: 3686 seconds
#
# Revision: 4
# Processed by: cddbd v1.5.2PL0 Copyright (c) Steve Scherf et al.
# Submitted via: ExactAudioCopy v0.99pb5
#
DISCID=ca0e640d
DTITLE=Various Blue Chicago Artists - Red Hot Mamas
DYEAR=1997
DGENRE=Chicago Blues
TTITLE0=Karen Carroll - Sweet Home Chicago
TTITLE1=Lynne Jordan - Mama (He Treats Your Daughter Mean)
TTITLE2=Liz Mandville Greeson - 20% Alcohol
TTITLE3=Bonnie Lee - Meet Me With Your Black Drawers On
TTITLE4=Patricia Scott - Something You Got
TTITLE5=Shirley Johnson - Unchain My Heart
TTITLE6=Lynne Jordan - One Good Man
TTITLE7=Peaches Staten - Honey Don't
TTITLE8=Liz Mandville Greeson - What Have I Done Wrong
TTITLE9=Bonnie Lee - Wee Baby Blues
TTITLE10=Patricia Scott - Not That Kind of Girl
TTITLE11=Shirley Johnson - Hold What You've Got
TTITLE12=Karen Carroll - Blue Chicago Blues
EXTD=
EXTT0=
EXTT1=
EXTT2=
EXTT3=
EXTT4=
EXTT5=
EXTT6=
EXTT7=
EXTT8=
EXTT9=
EXTT10=
EXTT11=
EXTT12=
PLAYORDER=
